<svg viewBox="0 0 96 96" xmlns="http://www.w3.org/2000/svg" xmlns:xlink="http://www.w3.org/1999/xlink" id="Icons_OnlineNetwork_M" overflow="hidden"><style>
.MsftOfcThm_Background1_Fill_v2 {
 fill:#FFFFFF; 
}
</style>
<g id="Icons"><path d="M71 4 25 4C23.9 4 23 4.9 23 6L23 90C23 91.1 23.9 92 25 92L71 92C72.1 92 73 91.1 73 90L73 6C73 4.9 72.1 4 71 4ZM71 6 71 14 25 14 25 6 71 6ZM71 16 71 80 25 80 25 16 71 16ZM25 90 25 82 71 82 71 90 25 90Z" class="MsftOfcThm_Background1_Fill_v2" stroke="none" stroke-width="1" stroke-linecap="butt" stroke-linejoin="miter" stroke-miterlimit="4" fill="#FFFFFF" fill-opacity="1"/><path d="M43 11 53 11C53.6 11 54 10.6 54 10 54 9.4 53.6 9 53 9L43 9C42.4 9 42 9.4 42 10 42 10.6 42.4 11 43 11Z" class="MsftOfcThm_Background1_Fill_v2" stroke="none" stroke-width="1" stroke-linecap="butt" stroke-linejoin="miter" stroke-miterlimit="4" fill="#FFFFFF" fill-opacity="1"/><path d="M37 56C32.6 56 29 59.6 28.9 64 28.8 68.4 32.5 72 36.9 72.1 41.3 72.2 44.9 68.5 45 64.1 45 63.1 44.8 62.2 44.5 61.3L52.9 56.2C55.8 59.6 60.8 60 64.2 57.1 67.6 54.2 68 49.2 65.1 45.8 62.3 42.6 57.5 42.1 54.1 44.6L47.8 37.4C50.8 34.2 50.6 29.1 47.4 26.1 44.2 23.1 39.1 23.3 36.1 26.5 33.1 29.7 33.3 34.8 36.5 37.8 37.4 38.7 38.6 39.3 39.8 39.7L37.1 56C37.1 56 37 56 37 56ZM33.7 69C33.9 67.2 35.5 65.9 37.3 66.1 38.8 66.3 40.1 67.5 40.2 69 38.3 70.3 35.7 70.3 33.7 69ZM35.8 62.9C35.8 62.3 36.3 61.7 37 61.7 37.6 61.7 38.2 62.2 38.2 62.9 38.2 63.5 37.7 64.1 37 64.1 36.4 64.1 35.8 63.6 35.8 62.9L35.8 62.9ZM41.9 67.4C41.4 66.3 40.6 65.3 39.5 64.7 40.5 63.3 40.2 61.3 38.8 60.3 37.4 59.3 35.4 59.6 34.4 61 33.6 62.1 33.6 63.6 34.4 64.7 33.3 65.3 32.5 66.2 32 67.4 30.1 64.7 30.8 60.9 33.5 59 36.2 57.1 40 57.8 41.9 60.5 43.3 62.4 43.3 65 42.1 67 42.1 67.2 41.9 67.4 41.9 67.4ZM55.7 56C55.9 54.2 57.5 52.9 59.3 53.1 60.8 53.3 62.1 54.5 62.2 56 60.3 57.3 57.7 57.3 55.7 56ZM57.8 49.9C57.8 49.3 58.3 48.7 59 48.7 59.6 48.7 60.2 49.2 60.2 49.9 60.2 50.5 59.7 51.1 59 51.1 58.4 51.1 57.8 50.6 57.8 49.9L57.8 49.9ZM59 45C62.3 45 65 47.7 65 51 65 52.2 64.6 53.4 63.9 54.4 63.4 53.3 62.6 52.3 61.5 51.7 62.5 50.3 62.2 48.3 60.8 47.3 59.4 46.3 57.4 46.6 56.4 48 55.6 49.1 55.6 50.6 56.4 51.7 55.3 52.3 54.5 53.2 54 54.4 52.1 51.7 52.8 47.9 55.5 46.1 56.6 45.4 57.8 45 59 45ZM40.8 30.9C40.8 30.3 41.3 29.7 42 29.7 42.7 29.7 43.2 30.2 43.2 30.9 43.2 31.5 42.7 32.1 42 32.1 41.4 32.1 40.8 31.6 40.8 30.9ZM42 34.1C43.7 34.1 45.1 35.4 45.3 37 43.3 38.3 40.7 38.3 38.8 37 38.9 35.4 40.3 34.1 42 34.1ZM36 32C36 28.7 38.7 26 42 26 45.3 26 48 28.7 48 32 48 33.2 47.6 34.4 46.9 35.4 46.4 34.3 45.6 33.3 44.5 32.7 45.5 31.3 45.2 29.3 43.8 28.3 42.4 27.3 40.4 27.6 39.4 29 38.6 30.1 38.6 31.6 39.4 32.7 38.3 33.3 37.5 34.2 37 35.4 36.4 34.4 36 33.2 36 32ZM41.8 40C41.9 40 41.9 40 42 40 43.5 40 45 39.6 46.3 38.7L52.7 46C50.8 48.4 50.4 51.7 51.8 54.5L43.6 59.4C42.5 57.8 41 56.7 39.1 56.2L41.8 40Z" class="MsftOfcThm_Background1_Fill_v2" stroke="none" stroke-width="1" stroke-linecap="butt" stroke-linejoin="miter" stroke-miterlimit="4" fill="#FFFFFF" fill-opacity="1"/></g></svg>