<svg viewBox="0 0 96 96" xmlns="http://www.w3.org/2000/svg" xmlns:xlink="http://www.w3.org/1999/xlink" id="Icons_GoodIdea_M" overflow="hidden"><style>
.MsftOfcThm_Background1_Fill_v2 {
 fill:#FFFFFF; 
}
</style>
<g id="Icons"><path d="M25.806 61.017 25.806 86.324 57.406 86.324 57.406 74.324 62.306 74.324C68.823 74.324 74.106 69.041 74.106 62.524 74.106 62.457 74.106 62.39 74.106 62.324L74.106 56.324 78.506 56.324C81.106 56.024 83.406 53.024 81.006 49.324L74.106 37.324 74.106 36.824C74.7208 20.2249 61.763 6.27019 45.1639 5.65536 45.1606 5.65524 45.1573 5.65512 45.154 5.655 44.781 5.641 44.408 5.635 44.038 5.635 27.8621 5.64692 14.5933 18.4518 14.006 34.617 13.9787 35.3503 13.9787 36.0813 14.006 36.81 13.9665 46.2737 18.3267 55.2184 25.806 61.017ZM16 36.737C15.976 36.058 15.976 35.369 16 34.689 16.4947 19.5738 28.9148 7.5896 44.038 7.635 44.383 7.635 44.732 7.641 45.081 7.654 60.5679 8.23866 72.6592 21.2488 72.11 36.737L72.11 37.844 72.376 38.307 79.276 50.307 79.303 50.353 79.332 50.398C79.9813 51.1817 80.1732 52.248 79.838 53.209 79.5542 53.7888 79.0099 54.1978 78.374 54.309L72.109 54.309 72.109 62.509C72.1018 67.9184 67.7184 72.3018 62.309 72.309L55.409 72.309 55.409 84.309 27.809 84.309 27.809 60.037 27.035 59.437C20.0661 54.0025 15.9961 45.6554 16.006 36.818L16.006 36.778Z" class="MsftOfcThm_Background1_Fill_v2" stroke="none" stroke-width="1" stroke-linecap="butt" stroke-linejoin="miter" stroke-miterlimit="4" fill="#FFFFFF" fill-opacity="1"/><path d="M42.767 55.557 42.767 55.557C44.4423 55.5574 45.836 54.2691 45.967 52.599L39.567 52.599C39.6976 54.2693 41.0916 55.5579 42.767 55.557Z" class="MsftOfcThm_Background1_Fill_v2" stroke="none" stroke-width="1" stroke-linecap="butt" stroke-linejoin="miter" stroke-miterlimit="4" fill="#FFFFFF" fill-opacity="1"/><path d="M29.969 32.058C30.0168 33.5741 30.3183 35.0715 30.861 36.488 31.379 37.8253 32.1322 39.0591 33.085 40.131 34.2712 41.6313 35.278 43.265 36.085 44.999 36.2512 45.3335 36.5925 45.5449 36.966 45.545L48.572 45.545C48.9453 45.5451 49.2865 45.3341 49.453 45 50.2597 43.2658 51.2665 41.6321 52.453 40.132 53.4051 39.0596 54.1582 37.8259 54.677 36.489 55.219 35.0723 55.5201 33.575 55.568 32.059L55.568 31.616C55.568 24.5468 49.8372 18.816 42.768 18.816 35.6988 18.816 29.968 24.5468 29.968 31.616ZM42.769 20.963C48.6726 20.9716 53.479 25.7121 53.569 31.615L53.569 32.025C53.5258 33.3046 53.2703 34.5681 52.813 35.764 52.3809 36.8787 51.7527 37.9069 50.958 38.8L50.92 38.843 50.885 38.887C49.7423 40.3322 48.753 41.8922 47.933 43.542L37.6 43.542C36.78 41.8922 35.7907 40.3322 34.648 38.887L34.613 38.843 34.58 38.8C33.787 37.9085 33.1598 36.8823 32.728 35.77 32.2693 34.5709 32.0128 33.3041 31.969 32.021L31.969 31.648C32.0449 25.7341 36.8537 20.9762 42.768 20.963Z" class="MsftOfcThm_Background1_Fill_v2" stroke="none" stroke-width="1" stroke-linecap="butt" stroke-linejoin="miter" stroke-miterlimit="4" fill="#FFFFFF" fill-opacity="1"/><path d="M47.652 48.09 38.085 48.09C37.5327 48.09 37.085 48.5377 37.085 49.09 37.085 49.6423 37.5327 50.09 38.085 50.09L47.652 50.09C48.2043 50.09 48.652 49.6423 48.652 49.09 48.652 48.5377 48.2043 48.09 47.652 48.09Z" class="MsftOfcThm_Background1_Fill_v2" stroke="none" stroke-width="1" stroke-linecap="butt" stroke-linejoin="miter" stroke-miterlimit="4" fill="#FFFFFF" fill-opacity="1"/><path d="M58.447 32.523 62.292 32.523C62.8443 32.523 63.292 32.0753 63.292 31.523 63.292 30.9707 62.8443 30.523 62.292 30.523L58.447 30.523C57.8947 30.523 57.447 30.9707 57.447 31.523 57.447 32.0753 57.8947 32.523 58.447 32.523Z" class="MsftOfcThm_Background1_Fill_v2" stroke="none" stroke-width="1" stroke-linecap="butt" stroke-linejoin="miter" stroke-miterlimit="4" fill="#FFFFFF" fill-opacity="1"/><path d="M23.246 32.523 27.091 32.523C27.6433 32.523 28.091 32.0753 28.091 31.523 28.091 30.9707 27.6433 30.523 27.091 30.523L23.246 30.523C22.6937 30.523 22.246 30.9707 22.246 31.523 22.246 32.0753 22.6937 32.523 23.246 32.523Z" class="MsftOfcThm_Background1_Fill_v2" stroke="none" stroke-width="1" stroke-linecap="butt" stroke-linejoin="miter" stroke-miterlimit="4" fill="#FFFFFF" fill-opacity="1"/><path d="M54.562 41.9C54.1647 41.5163 53.5317 41.5273 53.148 41.9246 52.7737 42.3121 52.7737 42.9265 53.148 43.314L55.867 46.034C56.2643 46.4177 56.8973 46.4067 57.281 46.0094 57.6553 45.6219 57.6553 45.0075 57.281 44.62Z" class="MsftOfcThm_Background1_Fill_v2" stroke="none" stroke-width="1" stroke-linecap="butt" stroke-linejoin="miter" stroke-miterlimit="4" fill="#FFFFFF" fill-opacity="1"/><path d="M30.976 21.145C31.3667 21.5355 32 21.5352 32.3905 21.1445 32.781 20.7538 32.7807 20.1205 32.39 19.73L29.671 17.011C29.2873 16.6137 28.6543 16.6027 28.257 16.9864 27.8597 17.3701 27.8487 18.0032 28.2324 18.4004 28.2405 18.4088 28.2487 18.417 28.257 18.425Z" class="MsftOfcThm_Background1_Fill_v2" stroke="none" stroke-width="1" stroke-linecap="butt" stroke-linejoin="miter" stroke-miterlimit="4" fill="#FFFFFF" fill-opacity="1"/><path d="M30.976 41.9 28.257 44.62C27.8597 45.0037 27.8487 45.6367 28.2324 46.034 28.6161 46.4313 29.2492 46.4423 29.6464 46.0586 29.6548 46.0505 29.663 46.0423 29.671 46.034L32.39 43.314C32.7737 42.9167 32.7627 42.2837 32.3654 41.9 31.9779 41.5257 31.3635 41.5257 30.976 41.9Z" class="MsftOfcThm_Background1_Fill_v2" stroke="none" stroke-width="1" stroke-linecap="butt" stroke-linejoin="miter" stroke-miterlimit="4" fill="#FFFFFF" fill-opacity="1"/><path d="M53.855 21.438C54.1202 21.4379 54.3745 21.3326 54.562 21.145L57.281 18.425C57.6647 18.0277 57.6537 17.3947 57.2564 17.011 56.8689 16.6367 56.2545 16.6367 55.867 17.011L53.148 19.73C52.757 20.12 52.7562 20.7532 53.1462 21.1442 53.334 21.3325 53.5891 21.4382 53.855 21.438Z" class="MsftOfcThm_Background1_Fill_v2" stroke="none" stroke-width="1" stroke-linecap="butt" stroke-linejoin="miter" stroke-miterlimit="4" fill="#FFFFFF" fill-opacity="1"/><path d="M42.769 16.846C43.3213 16.846 43.769 16.3983 43.769 15.846L43.769 12C43.769 11.4477 43.3213 11 42.769 11 42.2167 11 41.769 11.4477 41.769 12L41.769 15.846C41.769 16.3983 42.2167 16.846 42.769 16.846Z" class="MsftOfcThm_Background1_Fill_v2" stroke="none" stroke-width="1" stroke-linecap="butt" stroke-linejoin="miter" stroke-miterlimit="4" fill="#FFFFFF" fill-opacity="1"/></g></svg>