<svg viewBox="0 0 96 96" xmlns="http://www.w3.org/2000/svg" xmlns:xlink="http://www.w3.org/1999/xlink" id="Icons_NeanderthalMale_M" overflow="hidden"><style>
.MsftOfcThm_Background1_Fill_v2 {
 fill:#FFFFFF; 
}
</style>
<g id="Icons"><path d="M66.231 83.962 65.931 83.962 65.931 80.514 67.592 80.703C67.7043 80.7153 67.8171 80.7216 67.93 80.722 69.5869 80.722 70.93 79.3789 70.93 77.722L70.93 64.439C72.8365 62.3472 73.8643 59.6015 73.8 56.772L73.321 38.541C73.1285 30.7884 67.3957 24.294 59.727 23.141 59.6368 23.1327 59.546 23.1371 59.457 23.154L59.457 19.562 62.169 20.722C62.2321 20.7493 62.3002 20.7632 62.369 20.763 62.6231 20.7606 62.8366 20.5711 62.869 20.319 63.109 18.528 62.18 16.473 60.539 14.573 60.5346 14.5707 60.5328 14.5653 60.5351 14.5609 60.536 14.5592 60.5373 14.5579 60.539 14.557L63.505 13.074C63.7313 12.9627 63.8394 12.7004 63.757 12.462 63.0112 10.6907 61.2283 9.58337 59.31 9.7 58.7965 9.70168 58.2847 9.76003 57.784 9.874 57.7793 9.87566 57.7742 9.87322 57.7725 9.86854 57.7721 9.8674 57.7719 9.8662 57.772 9.865L57.722 6.339C57.7221 6.06861 57.5073 5.84711 57.237 5.839L57.194 5.839C56.117 5.94372 55.0941 6.36081 54.251 7.039 54.2483 7.04314 54.2427 7.04427 54.2385 7.04152 54.2375 7.04086 54.2367 7.04 54.236 7.039 53.0566 3.94227 50.0684 1.91197 46.755 1.956 40.171 1.956 32.49 8.441 31.063 15.22 31.0133 15.4916 31.1931 15.7521 31.4648 15.8019 31.4972 15.8078 31.5301 15.8105 31.563 15.81 31.599 15.8103 31.6348 15.8066 31.67 15.799L35.057 15.071C35.07 15.071 35.075 15.071 35.067 15.086 33.996 16.5726 33.3368 18.3157 33.156 20.139 33.1322 20.4208 33.3413 20.6685 33.6231 20.6923 33.634 20.6932 33.645 20.6938 33.656 20.694 33.7248 20.6942 33.7929 20.6803 33.856 20.653L36.419 19.553 36.419 23.17C36.3623 23.1626 36.3051 23.1603 36.248 23.163 28.6707 24.4113 23.047 30.8642 22.846 38.541L22.366 56.772C22.3003 59.451 23.2129 62.0621 24.933 64.117L24.933 73.176C24.9329 74.7018 26.078 75.9846 27.594 76.157L30.231 76.457 30.231 83.962 29.931 83.962C25.5145 83.9664 21.9354 87.5455 21.931 91.962 21.931 92.5143 22.3787 92.962 22.931 92.962L39.231 92.962C39.7149 92.9619 40.1293 92.6153 40.215 92.139L42.783 77.883 53.6 79.113 55.946 92.139C56.0317 92.6157 56.4467 92.9624 56.931 92.962L73.231 92.962C73.7833 92.962 74.231 92.5143 74.231 91.962 74.2255 87.546 70.647 83.9675 66.231 83.962ZM71.8 56.825C71.8744 59.7405 70.5329 62.5118 68.2 64.262L67.913 64.479C66.7046 65.3844 64.991 65.1387 64.0857 63.9303 63.9879 63.7998 63.902 63.6608 63.829 63.515 63.8107 63.4777 63.79 63.4416 63.767 63.407L62.087 60.89 63.827 57.409C63.922 57.2193 63.9543 57.0042 63.919 56.795L62.208 46.664 62.208 46.664C61.517 42.518 62.408 38.51 64.577 35.943 65.9378 34.2948 67.9233 33.2875 70.057 33.163 70.8375 34.8707 71.2664 36.7181 71.318 38.595ZM36.737 13.957C36.2799 13.2783 35.4563 12.9454 34.656 13.116L33.816 13.297C33.805 13.297 33.8 13.297 33.805 13.283 36.068 8.296 41.828 3.962 46.755 3.962 49.2558 3.91611 51.5126 5.45516 52.383 7.8 52.6176 8.38922 53.1178 8.83224 53.731 8.994 53.8974 9.03817 54.0688 9.06036 54.241 9.06 54.6958 9.06016 55.137 8.90531 55.492 8.621 55.571 8.557 55.652 8.498 55.735 8.441 55.744 8.435 55.751 8.441 55.751 8.45L55.772 9.911C55.7873 11.0155 56.6951 11.8984 57.7995 11.8831 57.9387 11.8811 58.0773 11.8647 58.213 11.834 58.5738 11.7506 58.9427 11.7076 59.313 11.706 59.8841 11.6975 60.4481 11.833 60.953 12.1 60.962 12.105 60.962 12.114 60.953 12.118L59.636 12.777C58.9234 13.1345 58.4912 13.881 58.536 14.677 58.5624 15.1285 58.7383 15.5585 59.036 15.899 59.5313 16.463 59.9617 17.0809 60.319 17.741 60.327 17.755 60.319 17.761 60.306 17.755L54.05 15.074C53.339 14.7695 52.5161 14.9023 51.937 15.415L48.772 18.215C48.762 18.224 48.755 18.215 48.756 18.207L48.928 15.632C49.0013 14.5299 48.1673 13.577 47.0652 13.5037 46.4589 13.4633 45.8672 13.7008 45.457 14.149L43.642 16.134C43.6393 16.1381 43.6337 16.1393 43.6295 16.1365 43.6285 16.1359 43.6277 16.135 43.627 16.134 43.1038 15.2999 42.0513 14.9707 41.146 15.358L35.935 17.588C35.921 17.594 35.915 17.588 35.922 17.574 36.1546 17.0967 36.422 16.6371 36.722 16.199 37.1848 15.525 37.1907 14.6371 36.737 13.957ZM41.919 17.2C41.9231 17.1972 41.9287 17.1982 41.9315 17.2022 41.9329 17.2042 41.9334 17.2066 41.933 17.209L41.933 19.679C41.933 19.9551 42.1569 20.179 42.433 20.179 42.5724 20.1794 42.7053 20.1201 42.798 20.016L46.91 15.516C46.92 15.504 46.928 15.507 46.927 15.523L46.51 21.74C46.4912 22.0155 46.6993 22.2541 46.9748 22.2728 46.9865 22.2736 46.9983 22.274 47.01 22.274 47.1316 22.274 47.2489 22.2287 47.339 22.147L53.257 16.905 57.448 18.699 57.448 23.914C57.443 26.0178 56.1251 27.8948 54.148 28.614L54.148 28.614 47.85 30.9 41.691 28.64C39.7244 27.9136 38.4165 26.0414 38.411 23.945L38.411 18.706ZM24.846 38.594C25.0241 31.8972 29.9195 26.2642 36.526 25.154 36.9604 27.609 38.6628 29.6501 41 30.518L47.5 32.9C47.6103 32.9401 47.7267 32.9607 47.844 32.961 47.9596 32.961 48.0744 32.9407 48.183 32.901L53.783 30.881C52.744 38.388 45.662 43.905 36.349 44.308L37.207 39.161C37.3019 38.6356 36.9772 38.1254 36.461 37.989 35.9241 37.8594 35.3839 38.1895 35.2542 38.7263 35.2487 38.7494 35.2439 38.7726 35.24 38.796L32.24 56.796C32.2087 56.9843 32.232 57.1775 32.307 57.353L33.82 60.9 32.336 63.516C31.6606 64.8659 30.0188 65.4127 28.669 64.7373 28.5233 64.6644 28.3844 64.5786 28.254 64.481L27.963 64.262C25.6308 62.5116 24.2894 59.7411 24.363 56.826ZM26.933 73.176 26.933 65.989 27.053 66.079C29.1449 67.6464 32.1114 67.2212 33.6788 65.1293 33.8378 64.9171 33.9787 64.6918 34.1 64.456L35.8 61.456C35.954 61.1846 35.9725 60.857 35.85 60.57L34.262 56.839 36.015 46.322C46.993 46.022 55.27 39.19 55.87 30.022 57.712 28.9845 58.9887 27.1726 59.346 25.089 59.373 25.095 59.394 25.113 59.422 25.117 63.349 25.7076 66.8375 27.9451 69.012 31.268 66.6762 31.6236 64.5532 32.8268 63.048 34.648 60.498 37.658 59.448 42.273 60.233 46.993L60.233 46.993 60.233 46.993 61.89 56.803 60.035 60.511C59.8754 60.8316 59.8995 61.213 60.098 61.511L62.066 64.462C63.2529 66.7748 66.09 67.6875 68.4029 66.5006 68.5853 66.407 68.7613 66.3016 68.93 66.185L68.93 77.722C68.9296 78.2743 68.4816 78.7217 67.9293 78.7213 67.8921 78.7213 67.8549 78.7192 67.818 78.715L27.818 74.17C27.3133 74.1116 26.9327 73.684 26.933 73.176ZM38.4 90.962 24.016 90.962C24.5078 88.077 27.0063 85.9657 29.933 85.962L31.233 85.962C31.7853 85.962 32.233 85.5143 32.233 84.962L32.233 76.684 40.793 77.657ZM57.774 90.962 55.677 79.348 63.933 80.287 63.933 84.962C63.933 85.5143 64.3807 85.962 64.933 85.962L66.233 85.962C69.1595 85.9661 71.6578 88.0772 72.15 90.962Z" class="MsftOfcThm_Background1_Fill_v2" stroke="none" stroke-width="1" stroke-linecap="butt" stroke-linejoin="miter" stroke-miterlimit="4" fill="#FFFFFF" fill-opacity="1"/></g></svg>