<svg viewBox="0 0 96 96" xmlns="http://www.w3.org/2000/svg" xmlns:xlink="http://www.w3.org/1999/xlink" id="Icons_MonsterTruck_M" overflow="hidden"><style>
.MsftOfcThm_Background1_Fill_v2 {
 fill:#FFFFFF; 
}
</style>
<g id="Icons"><path d="M90.4 62 90.4 62C89.9964 61.9979 89.6557 61.6997 89.6 61.3 89.535 60.893 89.455 60.491 89.363 60.093 89.2669 59.7018 89.4726 59.2993 89.846 59.148L89.854 59.148C90.2689 58.9836 90.4719 58.514 90.3074 58.0991 90.3073 58.0988 90.3071 58.0984 90.307 58.098L89.428 55.884C89.265 55.4698 88.7971 55.2661 88.3829 55.4291 88.3812 55.4297 88.3796 55.4303 88.378 55.431L88.378 55.431C88.2854 55.4679 88.1867 55.4869 88.087 55.487 87.7983 55.485 87.5321 55.3306 87.387 55.081 87.087 54.574 86.759 54.081 86.411 53.612 86.1681 53.2926 86.1975 52.843 86.48 52.558L86.489 52.549C86.8049 52.2331 86.8049 51.7209 86.489 51.405L84.8 49.723C84.4845 49.4074 83.9729 49.4072 83.6573 49.7227 83.6572 49.7228 83.6571 49.7229 83.657 49.723L83.649 49.731C83.4989 49.8804 83.2957 49.9642 83.084 49.964 82.907 49.9635 82.7347 49.9068 82.592 49.802 82.2587 49.56 81.9193 49.3297 81.574 49.111 81.2313 48.9015 81.0939 48.4726 81.251 48.103L81.251 48.092C81.4278 47.6819 81.239 47.2061 80.829 47.029L78.642 46.084C78.2319 45.9072 77.7561 46.0961 77.579 46.506L77.579 46.506C77.4514 46.7995 77.1611 46.9887 76.841 46.987 76.7695 46.9869 76.6983 46.9778 76.629 46.96 76.0586 46.8128 75.4812 46.6943 74.899 46.605 74.5026 46.5499 74.2066 46.2122 74.204 45.812L74.204 45.812C74.2057 45.366 73.846 45.0028 73.4 45L71.014 45C70.5676 45.0006 70.206 45.3626 70.206 45.809L70.206 45.809C70.2039 46.2126 69.9057 46.5533 69.506 46.609 69.0987 46.6757 68.6963 46.755 68.299 46.847 68.2361 46.8617 68.1716 46.869 68.107 46.869 67.7754 46.8727 67.4759 46.6714 67.354 46.363L67.354 46.356C67.232 46.0474 66.9338 45.8448 66.602 45.845 66.4993 45.8452 66.3976 45.8645 66.302 45.902L65.86 46.078 64.3 40.349 74.493 40.349C75.8772 40.3518 76.9983 41.4738 77 42.858 77.0005 43.8944 77.8406 44.7344 78.877 44.735L85.019 44.735C86.5397 44.7339 87.7723 43.5017 87.774 41.981L87.774 40.226C87.7726 39.0908 87.0762 38.0723 86.019 37.659L86.019 37.643C86.001 33.0579 82.7923 29.1042 78.309 28.143L69.35 26.253 65.55 19.284C64.4475 17.2589 62.3258 15.9989 60.02 16L46.12 16C44.8346 16.0051 43.7251 16.9022 43.451 18.158L41.57 26.942 14.83 26.942C12.3403 26.9448 10.3228 28.9623 10.32 31.452L10.32 41.981C10.3217 43.5017 11.5543 44.7339 13.075 44.735L19.339 44.735 19.339 42.858C19.3412 41.4728 20.4638 40.3507 21.849 40.349L31.9 40.349 30.341 46.065C30.2682 46.0389 30.1922 46.023 30.115 46.018 29.7922 46.0181 29.5003 46.2098 29.372 46.506L29.372 46.506C29.2442 46.7999 28.9534 46.9891 28.633 46.987 28.5615 46.9868 28.4903 46.9778 28.421 46.96 27.8509 46.8129 27.2739 46.6944 26.692 46.605 26.2936 46.5522 25.995 46.2139 25.992 45.812L25.992 45.812C25.9937 45.3671 25.6358 45.0044 25.191 45L22.809 45C22.3622 45 22 45.3622 22 45.809L22 45.809C21.9983 46.2127 21.6999 46.5537 21.3 46.609 20.8933 46.6757 20.491 46.755 20.093 46.847 20.0301 46.8617 19.9656 46.8691 19.901 46.869 19.5694 46.8727 19.2699 46.6714 19.148 46.363L19.148 46.356C19.026 46.0474 18.7278 45.8448 18.396 45.845 18.2933 45.8452 18.1916 45.8645 18.096 45.902L15.882 46.781C15.4671 46.946 15.2644 47.416 15.429 47.831L15.429 47.831C15.5735 48.2027 15.4248 48.6242 15.079 48.823 14.572 49.123 14.079 49.451 13.61 49.799 13.4676 49.9045 13.2952 49.9616 13.118 49.962 12.9072 49.9628 12.7048 49.8793 12.556 49.73L12.547 49.721C12.2311 49.4051 11.7189 49.4051 11.403 49.721L9.723 51.407C9.40713 51.7229 9.40713 52.2351 9.723 52.551L9.731 52.559C10.0127 52.8456 10.042 53.2952 9.8 53.616 9.558 53.9493 9.32767 54.2883 9.109 54.633 8.96047 54.8734 8.6986 55.0204 8.416 55.022 8.30768 55.0219 8.20052 54.9998 8.101 54.957L8.091 54.952C7.68064 54.7757 7.20496 54.9643 7.027 55.374L6.083 57.561C5.90616 57.9711 6.09505 58.4469 6.505 58.624 6.87123 58.7845 7.06415 59.1895 6.958 59.575 6.81171 60.1438 6.69389 60.7195 6.605 61.3 6.55216 61.6984 6.21389 61.997 5.812 62L5.812 62C5.3652 61.9983 5.00166 62.3592 5.00001 62.806 5 62.807 5 62.808 5 62.809L5 65.191C5 65.6378 5.3622 66 5.809 66L5.809 66C6.21241 66.0025 6.55294 66.3005 6.609 66.7 6.673 67.107 6.754 67.509 6.846 67.907 6.94193 68.2985 6.73576 68.701 6.362 68.852L6.355 68.852C5.94042 69.0162 5.73692 69.485 5.9 69.9L6.779 72.114C6.90165 72.422 7.19945 72.6244 7.531 72.625 7.6338 72.6251 7.73565 72.6054 7.831 72.567L7.831 72.567C7.92393 72.5301 8.023 72.5111 8.123 72.511 8.41168 72.5132 8.67778 72.6675 8.823 72.917 9.12373 73.4228 9.44982 73.9131 9.8 74.386 10.0425 74.7056 10.0131 75.1548 9.731 75.44L9.722 75.449C9.40613 75.7649 9.40613 76.2771 9.722 76.593L11.406 78.277C11.7219 78.5929 12.2341 78.5929 12.55 78.277L12.558 78.269C12.7078 78.1199 12.9106 78.0361 13.122 78.036 13.2994 78.0363 13.472 78.0931 13.615 78.198 13.9483 78.44 14.2873 78.6703 14.632 78.889 14.9754 79.0979 15.1134 79.5272 14.956 79.897L14.951 79.908C14.7742 80.3181 14.963 80.7939 15.373 80.971L17.56 81.916C17.9701 82.0928 18.4459 81.904 18.623 81.494L18.623 81.494C18.7509 81.2009 19.0412 81.0121 19.361 81.014 19.4325 81.0142 19.5037 81.0232 19.573 81.041 20.1423 81.1894 20.7187 81.3092 21.3 81.4 21.6984 81.4528 21.997 81.7911 22 82.193L22 82.193C22 82.6398 22.3622 83.002 22.809 83.002L25.191 83.002C25.6378 83.002 26 82.6398 26 82.193 26 82.1923 26 82.1917 26 82.191L26 82.191C26.0017 81.7873 26.3001 81.4463 26.7 81.391 27.1067 81.3243 27.509 81.245 27.907 81.153 27.9699 81.1383 28.0344 81.1309 28.099 81.131 28.4306 81.1273 28.7301 81.3286 28.852 81.637L28.852 81.644C28.974 81.9526 29.2722 82.1552 29.604 82.155 29.7067 82.1548 29.8084 82.1355 29.904 82.098L32.118 81.219C32.5329 81.054 32.7356 80.584 32.571 80.169L32.571 80.169C32.4265 79.7973 32.5752 79.3758 32.921 79.177 33.4268 78.8766 33.9171 78.5508 34.39 78.201 34.5324 78.0955 34.7048 78.0384 34.882 78.038 35.0928 78.0372 35.2952 78.1207 35.444 78.27L35.453 78.279C35.7689 78.5949 36.2811 78.5949 36.597 78.279L38.281 76.595C38.5969 76.2791 38.5969 75.7669 38.281 75.451L38.273 75.443C37.991 75.1567 37.9612 74.707 38.203 74.386 38.444 74.056 38.674 73.716 38.893 73.369 39.0414 73.1283 39.3033 72.981 39.586 72.979 39.6944 72.9794 39.8016 73.0019 39.901 73.045L39.912 73.045C40.0128 73.0894 40.1218 73.1123 40.232 73.112 40.5548 73.1119 40.8467 72.9202 40.975 72.624L41.92 70.437C42.0968 70.0269 41.9079 69.5511 41.498 69.374L41.498 69.374C41.1317 69.2135 40.9384 68.8087 41.044 68.423 41.1917 67.8551 41.3105 67.28 41.4 66.7 41.4533 66.3014 41.7919 66.0029 42.194 66L42.194 66C42.6396 65.9983 43 65.6366 43 65.191L43 62.809C43 62.3622 42.6378 62 42.191 62L42.191 62C41.7873 61.9983 41.4463 61.6999 41.391 61.3 41.3243 60.8927 41.245 60.4903 41.153 60.093 41.0571 59.7015 41.2632 59.2989 41.637 59.148L41.645 59.148C42.06 58.9842 42.2637 58.515 42.1 58.1L41.221 55.886C41.058 55.4718 40.5901 55.2681 40.1759 55.4311 40.1742 55.4317 40.1726 55.4324 40.171 55.433L40.171 55.433C40.0781 55.4699 39.979 55.4889 39.879 55.489 39.5903 55.4868 39.3242 55.3325 39.179 55.083 38.8786 54.5772 38.5528 54.0869 38.203 53.614 37.9609 53.2943 37.9903 52.8454 38.272 52.56L38.281 52.551C38.5969 52.2351 38.5969 51.7229 38.281 51.407L36.597 49.723C36.2811 49.4071 35.7689 49.4071 35.453 49.723L35.445 49.731C35.2952 49.8801 35.0924 49.9639 34.881 49.964 34.7036 49.9637 34.531 49.9069 34.388 49.802 34.058 49.56 33.718 49.33 33.371 49.111 33.0276 48.9021 32.8896 48.4728 33.047 48.103L33.052 48.092C33.2288 47.6819 33.0399 47.2061 32.63 47.029L32.209 46.847 33.981 40.347 37.646 40.347C39.031 40.3487 40.1533 41.471 40.155 42.856L40.155 46.366C40.1566 48.3704 41.7796 49.9956 43.784 50L52.558 50C54.563 49.9978 56.1878 48.373 56.19 46.368L56.19 42.858C56.1917 41.4726 57.3146 40.3501 58.7 40.349L62.229 40.349 64 46.839C63.6482 47.0316 63.4935 47.4549 63.638 47.829L63.638 47.829C63.7828 48.201 63.6335 48.6229 63.287 48.821 62.781 49.1217 62.2913 49.447 61.818 49.797 61.6761 49.9026 61.5039 49.9598 61.327 49.96 61.1159 49.9607 60.9133 49.8772 60.764 49.728L60.755 49.719C60.4395 49.4034 59.9279 49.4032 59.6123 49.7187 59.6122 49.7188 59.6121 49.7189 59.612 49.719L57.927 51.403C57.6111 51.7189 57.6111 52.2311 57.927 52.547L57.935 52.555C58.2177 52.8409 58.248 53.2909 58.006 53.612 57.7653 53.9453 57.5353 54.2847 57.316 54.63 57.1671 54.87 56.9054 55.0168 56.623 55.019 56.5143 55.0187 56.4068 54.9962 56.307 54.953L56.297 54.948C55.8869 54.7712 55.4111 54.9601 55.234 55.37L54.289 57.557C54.1122 57.9671 54.3011 58.4429 54.711 58.62L54.711 58.62C55.077 58.7808 55.2701 59.1853 55.165 59.571 55.0174 60.1409 54.8989 60.718 54.81 61.3 54.7567 61.6986 54.4181 61.9971 54.016 62L54.016 62C53.5696 62.0006 53.208 62.3626 53.208 62.809L53.208 65.191C53.208 65.6374 53.5696 65.9995 54.016 66L54.016 66C54.4197 66.0017 54.7607 66.3001 54.816 66.7 54.8827 67.1073 54.962 67.5097 55.054 67.907 55.1495 68.2985 54.9435 68.7007 54.57 68.852L54.562 68.852C54.1471 69.0164 53.9441 69.486 54.1085 69.9009 54.1087 69.9012 54.1088 69.9016 54.109 69.902L54.988 72.116C55.151 72.5302 55.6189 72.7339 56.0331 72.5709 56.0348 72.5703 56.0364 72.5696 56.038 72.569L56.038 72.569C56.1309 72.532 56.23 72.513 56.33 72.513 56.6187 72.5152 56.8848 72.6695 57.03 72.919 57.3301 73.425 57.6558 73.9153 58.006 74.388 58.2482 74.7078 58.2184 75.1571 57.936 75.442L57.927 75.451C57.6111 75.7669 57.6111 76.2791 57.927 76.595L59.612 78.279C59.9275 78.5946 60.4391 78.5948 60.7547 78.2793 60.7548 78.2792 60.7549 78.2791 60.755 78.279L60.764 78.271C60.9134 78.1212 61.1164 78.0373 61.328 78.038 61.5053 78.0386 61.6779 78.0953 61.821 78.2 62.151 78.442 62.491 78.672 62.838 78.891 63.1807 79.1004 63.3185 79.5291 63.162 79.899L63.162 79.91C62.9852 80.3201 63.174 80.7959 63.584 80.973L65.771 81.918C66.1811 82.0948 66.6569 81.906 66.834 81.496L66.834 81.496C66.9616 81.2025 67.2519 81.0133 67.572 81.015 67.6438 81.0151 67.7154 81.0242 67.785 81.042 68.355 81.1892 68.9321 81.3077 69.514 81.397 69.9122 81.4503 70.2106 81.7883 70.214 82.19L70.214 82.19C70.214 82.6364 70.5756 82.9985 71.022 82.999L73.4 82.999C73.8468 82.999 74.209 82.6368 74.209 82.19L74.209 82.19C74.2103 81.7879 74.5061 81.4475 74.904 81.39 75.312 81.3233 75.7147 81.244 76.112 81.152 76.1746 81.1373 76.2387 81.13 76.303 81.13 76.6346 81.1263 76.9341 81.3276 77.056 81.636L77.056 81.643C77.178 81.9516 77.4762 82.1542 77.808 82.154 77.9107 82.1538 78.0124 82.1345 78.108 82.097L80.323 81.218C80.7379 81.053 80.9406 80.583 80.776 80.168L80.776 80.168C80.6317 79.796 80.7809 79.3744 81.127 79.176 81.6337 78.8753 82.1233 78.55 82.596 78.2 82.7383 78.0943 82.9108 78.0372 83.088 78.037 83.2988 78.0364 83.5011 78.1199 83.65 78.269L83.659 78.278C83.9745 78.5936 84.4861 78.5938 84.8017 78.2783 84.8018 78.2782 84.8019 78.2781 84.802 78.278L86.487 76.594C86.8029 76.2781 86.8029 75.7659 86.487 75.45L86.479 75.442C86.1967 75.1559 86.1665 74.7063 86.408 74.385 86.65 74.0517 86.88 73.7123 87.098 73.367 87.2471 73.1267 87.5092 72.9798 87.792 72.978 87.9004 72.9784 88.0076 73.0009 88.107 73.044L88.118 73.044C88.5281 73.2208 89.0039 73.032 89.181 72.622L90.125 70.435C90.3018 70.0249 90.113 69.5491 89.703 69.372L89.703 69.372C89.3368 69.2115 89.1439 68.8065 89.25 68.421 89.3952 67.8535 89.512 67.2791 89.6 66.7 89.6533 66.3014 89.9919 66.0029 90.394 66L90.394 66C90.8408 66 91.203 65.6378 91.203 65.191L91.203 62.809C91.203 62.3645 90.8445 62.0033 90.4 62ZM64.751 22 67.479 27 53.206 27 53.206 22ZM32.3 50.8C32.608 50.994 32.912 51.2 33.2 51.412 33.9593 51.97 34.9471 52.1122 35.833 51.791L36.198 52.157C35.8736 53.046 36.0191 54.0386 36.585 54.797 36.8952 55.2156 37.1843 55.6494 37.451 56.097 37.9277 56.8992 38.7689 57.4153 39.7 57.477L39.893 57.963C39.2422 58.6518 38.9828 59.6224 39.203 60.544 39.288 60.906 39.358 61.265 39.414 61.612 39.5547 62.5405 40.1497 63.3374 41 63.736L41 64.262C40.1493 64.6624 39.5555 65.4619 39.418 66.392 39.3392 66.9076 39.2344 67.4189 39.104 67.924 38.8646 68.8297 39.0927 69.7951 39.712 70.498L39.504 70.979C38.563 71.005 37.6978 71.5011 37.2 72.3 37 72.609 36.8 72.912 36.588 73.2 36.0274 73.9582 35.8847 74.9472 36.208 75.833L35.842 76.2C34.9532 75.8788 33.9626 76.0237 33.203 76.586 32.7843 76.8958 32.3505 77.1845 31.903 77.451 31.0944 77.9225 30.5739 78.7659 30.515 79.7L30.028 79.893C29.5056 79.3998 28.8135 79.1262 28.095 79.129 27.8779 79.1291 27.6615 79.1539 27.45 79.203 27.087 79.288 26.727 79.358 26.38 79.414 25.4544 79.5568 24.6608 80.1516 24.264 81L23.738 81C23.3376 80.1493 22.5381 79.5555 21.608 79.418 21.0924 79.3391 20.5811 79.2343 20.076 79.104 19.171 78.8685 18.2082 79.0966 17.505 79.713L17.024 79.505C16.9975 78.5631 16.5002 77.6974 15.7 77.2 15.392 77.006 15.088 76.8 14.8 76.588 14.0407 76.03 13.0529 75.8878 12.167 76.209L11.802 75.843C12.1275 74.9542 11.982 73.961 11.415 73.203 11.1045 72.7846 10.8155 72.3507 10.549 71.903 10.0738 71.0982 9.23246 70.5794 8.3 70.516L8.1 70.03C8.75126 69.3415 9.01079 68.3707 8.79 67.449 8.706 67.087 8.635 66.727 8.58 66.381 8.43802 65.4565 7.84586 64.6631 7 64.264L7 63.738C7.85067 63.3376 8.44451 62.5381 8.582 61.608 8.66216 61.0923 8.76829 60.581 8.9 60.076 9.14078 59.1692 8.91139 58.2021 8.289 57.5L8.497 57.018C9.43702 56.9923 10.3017 56.4975 10.8 55.7 11 55.391 11.2 55.088 11.412 54.8 11.9731 54.042 12.1159 53.0528 11.792 52.167L12.158 51.8C13.0467 52.1209 14.037 51.9764 14.797 51.415 15.223 51.1 15.662 50.809 16.097 50.549 16.9057 50.0775 17.4265 49.2342 17.486 48.3L17.972 48.107C18.4944 48.6002 19.1865 48.8738 19.905 48.871 20.1221 48.8709 20.3385 48.8461 20.55 48.797 20.913 48.712 21.273 48.642 21.619 48.587 22.545 48.4431 23.3388 47.8482 23.737 47L24.262 47C24.6624 47.8507 25.4619 48.4445 26.392 48.582 26.9076 48.6609 27.4189 48.7657 27.924 48.896 28.829 49.1315 29.7918 48.9034 30.495 48.287L30.976 48.495C31.0025 49.4368 31.4998 50.3026 32.3 50.8ZM58.7 38.349C56.2109 38.3518 54.1938 40.3689 54.191 42.858L54.191 46.368C54.1899 47.2693 53.4593 47.9995 52.558 48L43.784 48C42.883 47.9989 42.1527 47.269 42.151 46.368L42.151 42.858C42.1482 40.3689 40.1311 38.3518 37.642 38.349L21.849 38.349C19.4073 38.3512 17.4098 40.2943 17.34 42.735L13.075 42.735C12.6584 42.735 12.3206 42.3976 12.32 41.981L12.32 31.452C12.3217 30.0665 13.4445 28.9437 14.83 28.942L43.188 28.942 45.409 18.577C45.4821 18.2414 45.7785 18.0015 46.122 18L60.022 18C61.4911 18.0024 62.8566 18.7572 63.64 20L51.206 20 51.206 29 72.688 29 77.9 30.1C81.4608 30.8635 84.0089 34.0043 84.022 37.646L84.022 39.474 85.022 39.474C85.4388 39.4745 85.7765 39.8123 85.777 40.229L85.777 41.984C85.7765 42.4006 85.4386 42.738 85.022 42.738L79 42.738C78.9303 40.2977 76.9333 38.3548 74.492 38.352ZM89.206 64.262C88.3551 64.6621 87.7612 65.4618 87.624 66.392 87.5449 66.9077 87.4398 67.419 87.309 67.924 87.0694 68.8294 87.2975 69.7946 87.917 70.497L87.71 70.979C86.7669 71.0032 85.8991 71.4995 85.4 72.3 85.206 72.609 85 72.912 84.788 73.2 84.2276 73.9584 84.0852 74.9474 84.409 75.833L84.042 76.2C83.1536 75.8791 82.1636 76.0236 81.404 76.585 80.977 76.9 80.539 77.191 80.104 77.451 79.2971 77.9236 78.7782 78.7667 78.72 79.7L78.234 79.893C77.7113 79.3995 77.0188 79.126 76.3 79.129 76.0829 79.1292 75.8665 79.154 75.655 79.203 75.293 79.287 74.933 79.358 74.587 79.413 73.6609 79.5566 72.8669 80.1515 72.469 81L71.943 81C71.5426 80.1493 70.7431 79.5555 69.813 79.418 69.2977 79.3391 68.7868 79.2343 68.282 79.104 67.377 78.8685 66.4142 79.0966 65.711 79.713L65.23 79.505C65.2017 78.5621 64.7021 77.6964 63.9 77.2 63.59 77.005 63.287 76.8 63 76.588 62.2403 76.03 61.2522 75.8878 60.366 76.209L60 75.839C60.3255 74.9502 60.18 73.957 59.613 73.199 59.299 72.773 59.013 72.335 58.747 71.899 58.2707 71.0968 57.4299 70.5807 56.499 70.519L56.306 70.033C56.9589 69.3441 57.2199 68.3723 57 67.449 56.915 67.087 56.844 66.727 56.789 66.381 56.6463 65.4563 56.0534 64.6629 55.207 64.264L55.207 63.738C56.0577 63.3376 56.6515 62.5381 56.789 61.608 56.8677 61.0924 56.9725 60.581 57.103 60.076 57.3426 59.1706 57.1145 58.2054 56.495 57.503L56.703 57.021C57.645 56.996 58.5116 56.4998 59.01 55.7 59.204 55.391 59.41 55.088 59.622 54.8 60.1835 54.0405 60.3255 53.0496 60 52.163L60.367 51.796C61.2557 52.1169 62.246 51.9724 63.006 51.411 63.4246 51.1007 63.8584 50.8117 64.306 50.545 65.1124 50.0737 65.6316 49.2322 65.691 48.3L66.177 48.107C66.7001 48.5999 67.3923 48.8733 68.111 48.871 68.3284 48.8709 68.5452 48.8461 68.757 48.797 69.118 48.713 69.478 48.642 69.825 48.587 70.7507 48.4431 71.5443 47.8482 71.942 47L72.468 47C72.8684 47.8507 73.6679 48.4445 74.598 48.582 75.1133 48.6608 75.6243 48.7656 76.129 48.896 77.034 49.1315 77.9968 48.9034 78.7 48.287L79.181 48.495C79.2088 49.437 79.7067 50.3024 80.507 50.8 80.817 51 81.12 51.2 81.407 51.412 82.1663 51.97 83.1541 52.1122 84.04 51.791L84.405 52.157C84.0806 53.048 84.2293 54.0427 84.8 54.8 85.114 55.226 85.406 55.664 85.666 56.1 86.1425 56.9019 86.9832 57.418 87.914 57.48L88.107 57.966C87.4564 58.6549 87.1973 59.6255 87.418 60.547 87.502 60.909 87.573 61.269 87.628 61.615 87.7706 62.5401 88.364 63.3337 89.211 63.732Z" class="MsftOfcThm_Background1_Fill_v2" stroke="none" stroke-width="1" stroke-linecap="butt" stroke-linejoin="miter" stroke-miterlimit="4" fill="#FFFFFF" fill-opacity="1"/><path d="M24 56.512C19.8645 56.512 16.512 59.8645 16.512 64 16.512 68.1355 19.8645 71.488 24 71.488 28.1355 71.488 31.488 68.1355 31.488 64 31.4814 59.8672 28.1328 56.5186 24 56.512ZM24 69.488C20.9691 69.488 18.512 67.0309 18.512 64 18.512 60.9691 20.9691 58.512 24 58.512 27.0309 58.512 29.488 60.9691 29.488 64 29.4847 67.0296 27.0296 69.4847 24 69.488Z" class="MsftOfcThm_Background1_Fill_v2" stroke="none" stroke-width="1" stroke-linecap="butt" stroke-linejoin="miter" stroke-miterlimit="4" fill="#FFFFFF" fill-opacity="1"/><path d="M72.206 56.512C68.0705 56.5114 64.7176 59.8635 64.717 63.999 64.7165 68.1345 68.0685 71.4874 72.204 71.488 76.3395 71.4885 79.6925 68.1365 79.693 64.001 79.693 64.0007 79.693 64.0003 79.693 64 79.6864 59.8676 76.3384 56.5192 72.206 56.512ZM72.206 69.488C69.1751 69.4885 66.7176 67.0319 66.717 64.001 66.7165 60.9701 69.1731 58.5126 72.204 58.512 75.2349 58.5114 77.6925 60.9681 77.693 63.999 77.693 63.9993 77.693 63.9997 77.693 64 77.6897 67.0292 75.2352 69.4841 72.206 69.488Z" class="MsftOfcThm_Background1_Fill_v2" stroke="none" stroke-width="1" stroke-linecap="butt" stroke-linejoin="miter" stroke-miterlimit="4" fill="#FFFFFF" fill-opacity="1"/></g></svg>