<svg viewBox="0 0 96 96" xmlns="http://www.w3.org/2000/svg" xmlns:xlink="http://www.w3.org/1999/xlink" id="Icons_SmilingFaceWithHearts_M" overflow="hidden"><style>
.MsftOfcThm_Background1_Fill_v2 {
 fill:#FFFFFF; 
}
.MsftOfcThm_Background1_Stroke_v2 {
 stroke:#FFFFFF; 
}
</style>
<g id="Icons"><path d="M48 68C53.9189 68.0079 59.5183 65.3163 63.209 60.689 63.5625 60.2647 63.5051 59.6341 63.0808 59.2806 62.6565 58.9271 62.0259 58.9845 61.6724 59.4088 61.6644 59.4184 61.6566 59.4281 61.649 59.438 55.6221 66.9767 44.6249 68.2022 37.0863 62.1753 36.0753 61.367 35.1572 60.449 34.349 59.438 34.0116 59.0008 33.3836 58.9198 32.9464 59.2572 32.5091 59.5946 32.4282 60.2226 32.7656 60.6598 32.7732 60.6697 32.781 60.6794 32.789 60.689 36.4802 65.3168 42.0804 68.0085 48 68Z" class="MsftOfcThm_Background1_Fill_v2 MsftOfcThm_Background1_Stroke_v2" stroke="#FFFFFF" stroke-width="2" stroke-linecap="butt" stroke-linejoin="miter" stroke-miterlimit="4" stroke-opacity="1" fill="#FFFFFF" fill-opacity="1"/><path d="M40.67 46.294C40.8324 46.8223 41.3922 47.1189 41.9205 46.9565 42.4488 46.7941 42.7454 46.2343 42.583 45.706 41.0456 40.6896 35.7327 37.8693 30.7163 39.4067 27.7011 40.3308 25.3411 42.6909 24.417 45.706 24.2546 46.2343 24.5512 46.7941 25.0795 46.9565 25.6078 47.1189 26.1676 46.8223 26.33 46.294 27.5452 42.3341 31.7404 40.1091 35.7002 41.3242 38.0785 42.0541 39.9402 43.9157 40.67 46.294Z" class="MsftOfcThm_Background1_Fill_v2 MsftOfcThm_Background1_Stroke_v2" stroke="#FFFFFF" stroke-width="2" stroke-linecap="butt" stroke-linejoin="miter" stroke-miterlimit="4" stroke-opacity="1" fill="#FFFFFF" fill-opacity="1"/><path d="M53.428 45.706C53.2656 46.234 53.562 46.7936 54.09 46.956 54.618 47.1184 55.1776 46.822 55.34 46.294 56.5543 42.3338 60.749 40.1079 64.7091 41.3221 67.0887 42.0518 68.9514 43.9144 69.681 46.294 69.8434 46.822 70.403 47.1184 70.931 46.956 71.459 46.7936 71.7554 46.234 71.593 45.706 70.0547 40.6899 64.7413 37.8705 59.7251 39.4089 56.7113 40.3331 54.3523 42.6922 53.428 45.706Z" class="MsftOfcThm_Background1_Fill_v2 MsftOfcThm_Background1_Stroke_v2" stroke="#FFFFFF" stroke-width="2" stroke-linecap="butt" stroke-linejoin="miter" stroke-miterlimit="4" stroke-opacity="1" fill="#FFFFFF" fill-opacity="1"/><path d="M16.953 23.114C14.6881 23.7031 13.08 25.7111 13 28.05 13 33.37 20.973 39.519 21.312 39.778 21.6704 40.0517 22.1676 40.0517 22.526 39.778 22.865 39.519 30.837 33.37 30.837 28.047 30.7278 25.7131 29.1224 23.7175 26.866 23.111 24.939 22.6996 22.9608 23.5392 21.918 25.211 20.8716 23.534 18.8847 22.6948 16.953 23.114ZM21.918 28.12 21.918 28.12C22.2956 28.12 22.6411 27.9072 22.811 27.57 23.786 25.633 25.066 24.741 26.406 25.059 27.7644 25.4458 28.7356 26.6412 28.836 28.05 28.836 31.338 24.296 35.75 21.917 37.706 19.539 35.753 15 31.344 15 28.05 15.0968 26.6439 16.0633 25.4488 17.418 25.06 17.593 25.0191 17.7723 24.999 17.952 25 19.1 25 20.176 25.895 21.025 27.576 21.1966 27.9109 21.5417 28.1211 21.918 28.12Z" class="MsftOfcThm_Background1_Fill_v2 MsftOfcThm_Background1_Stroke_v2" stroke="#FFFFFF" stroke-width="2" stroke-linecap="butt" stroke-linejoin="miter" stroke-miterlimit="4" stroke-opacity="1" fill="#FFFFFF" fill-opacity="1"/><path d="M79.034 13.12C77.1016 12.7014 75.1146 13.5419 74.069 15.22 73.0257 13.542 71.04 12.7012 69.109 13.12 66.8548 13.7276 65.2534 15.7247 65.15 18.057 65.15 23.377 73.122 29.525 73.461 29.785 73.8194 30.0587 74.3166 30.0587 74.675 29.785 75.015 29.525 82.987 23.377 82.987 18.057 82.9078 15.7176 81.2994 13.7089 79.034 13.12ZM74.068 27.712C71.69 25.756 67.15 21.344 67.15 18.056 67.248 16.6486 68.2159 15.4529 69.572 15.064 69.7469 15.0222 69.9261 15.0007 70.106 15 71.254 15 72.329 15.9 73.175 17.575 73.3449 17.9122 73.6904 18.125 74.068 18.125L74.068 18.125C74.4454 18.1252 74.7908 17.9129 74.961 17.576 75.941 15.636 77.222 14.739 78.57 15.064 79.9241 15.454 80.8899 16.6492 80.987 18.055 80.987 21.344 76.447 25.756 74.068 27.712Z" class="MsftOfcThm_Background1_Fill_v2 MsftOfcThm_Background1_Stroke_v2" stroke="#FFFFFF" stroke-width="2" stroke-linecap="butt" stroke-linejoin="miter" stroke-miterlimit="4" stroke-opacity="1" fill="#FFFFFF" fill-opacity="1"/><path d="M79.119 29.935C85.4607 40.8196 85.6334 54.2318 79.574 65.276 80.0886 65.794 80.5342 66.3761 80.9 67.008 87.8071 55.0614 87.6923 40.3086 80.6 28.471 80.09 29.005 79.592 29.494 79.119 29.935Z" class="MsftOfcThm_Background1_Fill_v2 MsftOfcThm_Background1_Stroke_v2" stroke="#FFFFFF" stroke-width="2" stroke-linecap="butt" stroke-linejoin="miter" stroke-miterlimit="4" stroke-opacity="1" fill="#FFFFFF" fill-opacity="1"/><path d="M10 48C10.0089 68.9957 27.0365 86.0088 48.0322 85.9998 53.713 85.9974 59.321 84.7219 64.444 82.267 63.96 81.797 63.462 81.285 62.959 80.732 44.8919 89.005 23.5389 81.0653 15.2659 62.9982 11.4795 54.7292 10.965 45.333 13.826 36.7 13.3114 36.0736 12.8285 35.4217 12.379 34.747 10.8013 38.9873 9.99562 43.4758 10 48Z" class="MsftOfcThm_Background1_Fill_v2 MsftOfcThm_Background1_Stroke_v2" stroke="#FFFFFF" stroke-width="2" stroke-linecap="butt" stroke-linejoin="miter" stroke-miterlimit="4" stroke-opacity="1" fill="#FFFFFF" fill-opacity="1"/><path d="M21.408 20.865C21.576 20.955 21.745 21.05 21.915 21.157 22.9593 20.4908 24.1542 20.0975 25.39 20.013 35.9215 11.473 50.3669 9.59751 62.73 15.165 62.9852 14.5399 63.3156 13.9482 63.714 13.403 49.4249 6.90903 32.6131 9.87433 21.408 20.865Z" class="MsftOfcThm_Background1_Fill_v2 MsftOfcThm_Background1_Stroke_v2" stroke="#FFFFFF" stroke-width="2" stroke-linecap="butt" stroke-linejoin="miter" stroke-miterlimit="4" stroke-opacity="1" fill="#FFFFFF" fill-opacity="1"/><path d="M69.462 82.665C69.8204 82.9387 70.3176 82.9387 70.676 82.665 71.016 82.405 78.988 76.257 78.988 70.936 78.9082 68.5967 77.2995 66.5884 75.034 66 73.1019 65.5816 71.1152 66.422 70.07 68.1 69.0257 66.4231 67.0409 65.5828 65.11 66 62.8556 66.6075 61.2538 68.6045 61.15 70.937 61.15 76.257 69.123 82.405 69.462 82.665ZM65.573 67.945C65.7479 67.903 65.9271 67.8818 66.107 67.882 67.255 67.882 68.33 68.775 69.176 70.457 69.3459 70.7942 69.6914 71.007 70.069 71.007L70.069 71.007C70.4464 71.0072 70.7918 70.7949 70.962 70.458 71.942 68.516 73.222 67.619 74.571 67.945 75.9255 68.3345 76.8915 69.5299 76.988 70.936 76.988 74.225 72.447 78.636 70.069 80.593 67.69 78.64 63.15 74.23 63.15 70.936 63.2477 69.5284 64.2163 68.3327 65.573 67.945Z" class="MsftOfcThm_Background1_Fill_v2 MsftOfcThm_Background1_Stroke_v2" stroke="#FFFFFF" stroke-width="2" stroke-linecap="butt" stroke-linejoin="miter" stroke-miterlimit="4" stroke-opacity="1" fill="#FFFFFF" fill-opacity="1"/></g></svg>